# xmcd CD database file
#
# Track frame offsets:
#	150
#	24060
#	49366
#
# Disc length: 976 seconds
#
# Revision: 1
# Processed by: cddbd v1.5.2PL0 Copyright (c) Steve Scherf et al.
# Submitted via: CDex 1.70beta2
#
DISCID=1a03ce03
DTITLE=GLAY - ホワイトロード
DYEAR=2004
DGENRE=Rock
TTITLE0=ホワイトロード
TTITLE1=笑顔の多い日ばかりじゃない
TTITLE2=ホワイトロード(instrumental)
EXTD=YEAR: 2004
EXTT0=
EXTT1=
EXTT2=
PLAYORDER=
